<svg width="1280" height="720" xmlns="http://www.w3.org/2000/svg" xmlns:xlink="http://www.w3.org/1999/xlink" overflow="hidden"><defs><clipPath id="clip0"><rect x="0" y="0" width="1280" height="720"/></clipPath></defs><g clip-path="url(#clip0)"><rect x="0" y="0" width="1280" height="720" fill="#FFFFFF"/><path d="M284 187 313 83 342 187Z" fill="#4472C4" fill-rule="evenodd"/><path d="M0 103 29 0 58 103Z" fill="#4472C4" fill-rule="evenodd" transform="matrix(1 0 0 -1 284 290)"/><path d="M313 157 416 186.5 313 216Z" fill="#4472C4" fill-rule="evenodd"/><path d="M0 103 29.5 0 59 103Z" fill="#4472C4" fill-rule="evenodd" transform="matrix(6.12323e-17 1 1 -6.12323e-17 210 157)"/><path d="M235 255 245 220 255 255Z" fill="#4472C4" fill-rule="evenodd"/><path d="M0 35 10 0 20 35Z" fill="#4472C4" fill-rule="evenodd" transform="matrix(1 0 0 -1 235 290)"/><path d="M245 245 280 255 245 265Z" fill="#4472C4" fill-rule="evenodd"/><path d="M0 35 10 0 20 35Z" fill="#4472C4" fill-rule="evenodd" transform="matrix(6.12323e-17 1 1 -6.12323e-17 210 245)"/><path d="M371 118 381 83 391 118Z" fill="#4472C4" fill-rule="evenodd"/><path d="M0 35 10 0 20 35Z" fill="#4472C4" fill-rule="evenodd" transform="matrix(1 0 0 -1 371 153)"/><path d="M381 108 416 118 381 128Z" fill="#4472C4" fill-rule="evenodd"/><path d="M0 35 10 0 20 35Z" fill="#4472C4" fill-rule="evenodd" transform="matrix(6.12323e-17 1 1 -6.12323e-17 346 108)"/></g></svg>